# File produced by Open Asset Import Library (http://www.assimp.sf.net)
# (assimp v3.1.202510665)

mtllib carpet%20plane.mtl

# vertex positions
v 6.041422 -0.010190 -6.041422
v -6.041422 -0.010190 -6.041422
v -6.041422 0.010190 -6.041422
v 6.041422 0.010190 -6.041422
v -6.041422 0.010190 6.041422
v 6.041422 0.010190 6.041422
v -6.041422 -0.010190 6.041422
v 6.041422 -0.010190 6.041422

# UV coordinates
vt 0.000000 0.000000
vt 0.333333 0.000000
vt 0.333333 0.333333
vt 0.000000 0.333333
vt 0.000000 0.333333
vt 0.333333 0.333333
vt 0.333333 0.666667
vt 0.000000 0.666667
vt 0.333781 0.333333
vt 0.333781 0.000000
vt 0.667114 0.000000
vt 0.667114 0.333333
vt 0.667114 0.666667
vt 0.333781 0.666667
vt 0.000000 0.666667
vt 0.333333 1.000000
vt 0.000000 1.000000
vt 0.667114 1.000000
vt 0.333781 1.000000

# vertex normals
vn 0.000000 0.000000 -1.000000
vn 0.000000 1.000000 0.000000
vn 0.000000 0.000000 1.000000
vn 0.000000 -1.000000 0.000000
vn -1.000000 0.000000 0.000000
vn 1.000000 0.000000 0.000000

# Mesh
g carpet_plane
usemtl lambert1
f 4/4/1 1/1/1 2/2/1
f 2/2/1 3/3/1 4/4/1
f 6/8/2 4/5/2 3/6/2
f 3/6/2 5/7/2 6/8/2
f 8/12/3 6/9/3 5/10/3
f 5/10/3 7/11/3 8/12/3
f 1/14/4 8/9/4 7/12/4
f 7/12/4 2/13/4 1/14/4
f 3/17/5 2/15/5 7/7/5
f 7/7/5 5/16/5 3/17/5
f 6/19/6 8/14/6 1/13/6
f 1/13/6 4/18/6 6/19/6
